<?xml version="1.0" encoding="utf-8"?>
<!-- Generator: Adobe Illustrator 18.0.0, SVG Export Plug-In . SVG Version: 6.00 Build 0)  -->
<!DOCTYPE svg PUBLIC "-//W3C//DTD SVG 1.1//EN" "http://www.w3.org/Graphics/SVG/1.1/DTD/svg11.dtd">
<svg version="1.1" id="Layer_1" xmlns="http://www.w3.org/2000/svg" xmlns:xlink="http://www.w3.org/1999/xlink" x="0px" y="0px"
	 viewBox="0 0 564.7 187.3" enable-background="new 0 0 564.7 187.3" xml:space="preserve">
<polygon fill="#ED1C24" points="106.9,129 68.3,103 27.6,130.3 41.2,83.9 2.9,51.5 51.9,50.9 69,3.4 84.9,49.9 132.4,49.9 
	80.4,58.2 68.9,27.2 57.8,58.3 25,58.9 50.6,79.2 40.5,113.1 67.4,92.7 "/>
<path fill="none" stroke="#000000" stroke-width="0.1" d="M76.4,83.5"/>
<g>
	<path fill="#00A651" d="M72,56.7c0,0,6.1-3.5,1-7.5c0,0-4.1-2.4-8.9,1c-0.4,0.8-1.6,4.1,2.4,7.1c0.6,0.5,6.2,5,5.5,8.4
		c0.8-0.9,3.1-3.3-0.2-6.7C70.9,58.4,69.5,56.5,72,56.7z"/>
	<path fill="#00A651" d="M67.9,62.2c0,0-6,1.7,0.6,6c0.7,0.5,2.7,1.9,2.7,3.9c0.5-0.4,1.2-1.5,0.2-3.2c-1.2-1.9-3.3-3.5-2.8-5.1
		C69,62.2,67.9,62.2,67.9,62.2z"/>
	<path fill="#00A651" d="M67.4,71.1c0,0-4.9,1.9,1.9,5.3c0.7,0.7,1.6,1.4,1.7,2c0.5-0.3,0.2-1.4-0.2-2.6
		C70.2,75.1,67.4,71.1,67.4,71.1z"/>
	<path fill="#00A651" d="M68,79.4c0,0-3.7,0.1-0.9,2.7c1.5,0.9,2.9,1.1,3.1,2.7c0.4,0.6,0.7,1,0.7,1s1-1.7,0.5-2.6
		C70.8,82.2,69.7,79.4,68,79.4z"/>
	<polygon points="66.5,49.2 66.5,55.4 71,58.6 71,49.3 	"/>
	<polygon points="66.6,59.6 66.6,66.6 70.7,69.2 70.6,63.2 	"/>
	<polygon points="66.4,69.1 66.5,74.5 70.4,76.9 70.3,73.1 	"/>
	<polygon points="66.9,76.8 66.8,81.7 70,84.1 69.9,79.4 	"/>
	<polygon points="66.8,84 66.8,92.5 70.1,92.5 70.1,86.6 	"/>
</g>
<path fill="#0072BC" d="M143.2,68.1v-9.5c0,0-47-1.1-49,0.2c-1.9,0.7-13.4-0.2-10.2,21.8c0.6,1,0.8,6.7,35.8,6
	c1,0.1,6.6,1.2,1.9,6.7c-1.2,0-38.6,0-38.6,0v10.6c0,0,40.6,0.6,43-0.1c2.4-0.5,12.8-0.9,17.1-7.8c0-2.9-0.1-13.4-0.1-13.4
	s-2.3-4.9-8.1-5.8c-5.6,0-29.9,0-29.9,0s-3.9-2.3-0.2-8.7C106.6,68,143.2,68.1,143.2,68.1z"/>
<polygon fill="#0072BC" points="155.4,56.8 155.4,102.8 173.3,102.8 173.3,78.4 185.5,78.4 186,69.2 173.4,69.2 173.4,56.8 "/>
<path fill="#0072BC" d="M282.8,78.8v24.1h-18.3V75.3c0,0,1.6-4.5,6-5.6c2.6,0,24.8,0,24.8,0v7.4l-9.9-0.1
	C285.5,77,282.8,76.9,282.8,78.8z"/>
<path fill="#0072BC" d="M358.7,93.6V58.2h-19.1v37.2c0,0,2.6,6.4,7.4,6.4c4.8,0,52.8,0,52.8,0V93L358.7,93.6z"/>
<path fill="#0072BC" d="M461.3,68.5c7.5,0,8.4,7.1,8.4,7.1s0,14.6,0,19.2c-0.9,5.8-9.8,6.6-9.8,6.6s-38.9-0.1-41.1-0.1
	c-5.7-1-7.3-3.9-8.6-5.6c-2.5-14.2,4.2-15.1,5.7-15.7c1.1-1.1,36-0.9,37.1-1.1c-0.6-2.4-4.4-2.9-4.4-2.9h-38.4V68L461.3,68.5z
	 M431.4,94.4c0,0,14.7,0,18.3,0c5.6-5.6-0.6-7.1-0.6-7.1h-17.7C426.8,91.9,431.4,94.4,431.4,94.4z"/>
<path fill="#0072BC" d="M523.7,78.9v15.3l-21.6,0.2V79.1L523.7,78.9z M483.7,57.3c0,0,0,31.2,0,37.8s9.5,8.3,9.5,8.3
	s26.6-0.2,34.2-0.2c15.9-0.9,15-7.1,15-7.1s0-11.9,0-18.5c-2.9-7.3-12.1-7.7-12.1-7.7l-28.7-0.3v-13L483.7,57.3z"/>
<path fill="#0072BC" d="M192,68.5h52.8c0,0,7,3.6,7.7,5.7c-0.2,1.8,0,20.6,0,20.6s-2.1,6.4-8.8,7.3c-3.8,0-40.8,0-40.8,0
	s-10.7-1.2-11-8.9c0.5-4.7-0.9-8.9,5.1-12.7c3.3,0,34.2-1.1,37.1-0.9c0-0.8,0.9-3.4-6.3-3.3c-4.9,0-35.8,0-35.8,0L192,68.5z
	 M213.5,94.1c0,0,14.2,0,18.1,0c3.4-3.4,0.1-6.6,0.1-6.6h-18.3C209.8,91.1,213.5,94.1,213.5,94.1z"/>
<g>
	<path fill="#ED1C24" d="M198.7,117.6c-0.6-1-3.4-1.4-8.3-1.3c-3.5,0-8.3,0.1-14.3,0.2c-2.3,0.1-4,0.1-5,0.1
		c-6.9,0-12.6-0.5-17.3-1.6c-4.2-1-6.4-2.2-6.4-3.6c0-1,0.8-1.8,2.4-2.4c0.7-0.4,2.1-0.6,4.1-0.6c0.9,0,1.5,0.1,2,0.2
		c0.4,0.3,0.7,0.8,0.7,1.3c-1.1,0.3-1.7,0.6-1.7,0.9c0,0.8,1.5,1.3,4.4,1.6c2.2,0.2,3.9,0.3,5,0.3c4.8-0.1,7.5-0.2,8-0.2
		c0.5,0,2.6,0,6.3-0.1c2.2-0.1,4.2-0.1,6.1-0.1c6.6,0,11.5,0.3,14.7,0.9c6.9,1.3,10.2,3,9.9,5.1l2.9,0.1l10.5,3.2h-50.1v14
		c0,0.7,1.2,1,3.7,1c3.7,0,7.6-0.7,11.9-2.2c3.7-1.2,5.9-2.3,6.8-3.1c-3.5,0-6.2-0.3-8.2-1c-1.6-0.6-2.4-1.2-2.4-1.9
		c0-0.9,0.8-1.6,2.4-2.2c2-0.8,5-1.2,9-1.2c4.8,0,8.5,0.6,10.9,1.9c1.9,1,2.8,2,2.6,3.1c-0.3,2.7-2.9,4.8-7.9,6.3
		c-9.2,2.9-16.5,4.3-22,4.3c-3.2,0.1-6.4-0.1-9.4-0.6c-3.1-0.5-5.3-1-6.6-1.7c-0.9-0.4-1.5-0.8-2-1.3v-5l-1.1-1.1
		c-0.1-0.4-1-0.8-2.4-1.3c-1.5-0.4-3.1-0.7-4.8-0.7c-2.1,0-4,0.4-5.9,1.3c-8.1,3.7-13.4,5.6-15.8,5.7c-0.7,0-1.7,0-2.9,0
		c-3.1,0-5.3-0.1-6.6-0.4c-2.9-0.3-7-1.9-12.1-4.9l8.3-2.5c0.1,0.5,0.7,1.2,1.5,2c1.2,1,2.5,1.6,3.9,1.6c1,0,2.8-0.5,5.3-1.5
		l5.7-2.4c-0.6-1.7-2.3-2.8-5-3.5c-1.3-0.3-3.7-0.5-7.2-0.6c-4.1-0.1-6.5-0.2-7.2-0.2c-3.4-0.3-5.8-0.7-7.4-1.1l-1.5-1.1l-9.4-2.8
		h102.2V117.6z M141.8,125.5c0.6-0.1,1-0.3,1.3-0.4c1.9-0.4,3.2-0.6,4-0.6c3.5-0.1,6.4,0.1,8.6,0.6c0.7,0.2,2.6,0.8,5.7,2v-5.7
		h-25.6C139.5,122.4,141.5,123.8,141.8,125.5z"/>
	<path fill="#ED1C24" d="M226.6,120.3v-0.7c-0.5-1.5-0.7-3.4-0.7-5.8l6.1,1.5c0.3,1,0.9,1.8,1.8,2.4c0.4,0.2,0.9,0.4,1.5,0.6h4.8
		l10.7,3.2h-14.5v23.6l-10.4-3.4v-16.4c-0.1-0.6-0.3-1-0.4-1.2c-0.6-0.6-1.8-1.2-3.5-1.7c-2.2-0.6-4.8-0.9-7.7-0.9
		c-0.4,0-1.3,0-2.4,0l-10.6-2.9c4.7-0.2,8.1-0.2,10.3-0.2C218.5,118.3,223.5,119,226.6,120.3z"/>
	<path fill="#ED1C24" d="M298.2,121.5v22.9l-5.9-1.7l-7.5-4.2c-2.8-1.3-6.6-2.4-11.4-3.2c-5.9-1.1-12-1.7-18.3-1.8l-10.8-4.5
		c14.7-3.1,29.2-5.4,43.5-6.9v-0.5h-43l-11-3.2h67l11,3.2H298.2z M269.3,141.7c-2.9,0-5.3-0.3-7.2-1c-1.5-0.5-2.2-1.1-2.2-1.7
		c0-0.6,0.7-1.2,2-1.7c1.6-0.7,3.8-1,6.6-1c2.9,0,5.2,0.3,7,1c1.6,0.5,2.4,1.1,2.4,1.7c0,0.6-0.7,1.2-2,1.7
		C274.1,141.3,271.9,141.7,269.3,141.7z M287.8,126.4c-7.4,0.8-14.9,1.9-22.6,3.6c8.7,1.2,16.2,3.2,22.6,5.8V126.4z"/>
	<path fill="#ED1C24" d="M409.3,121.5v22.9l-10.9-3.2V129c0-0.4-0.7-0.9-2.2-1.4c-1.5-0.5-3.2-0.8-5.1-0.8c-1.3,0-2.4,0.2-3.1,0.6
		c-0.7,0.4-0.7,1.3,0,2.8l-8.1,1c0.9-0.7,1-1.3,0.2-1.7c-1.8-0.8-3-1.4-3.7-1.6c-2.3-0.7-5.3-1.1-9-1.1c-3.5,0-6.3,0.4-8.3,1.2
		c-1.8,0.7-2.6,1.4-2.6,2.2c0,1,1.2,1.7,3.6,2.1c0-0.3,0-0.5,0-0.8c0-0.7,0.8-1.3,2.4-1.9c1.8-0.7,4.2-1.1,7.3-1.1
		c4.4,0,7.6,0.7,9.5,2.2c1.5,1.2,1.8,2.1,1.1,2.6c-2.2,1.6-6.4,2.4-12.5,2.4c-7.5,0-13.2-0.8-17.2-2.3c-3.1-1.2-4.6-2.6-4.6-4.2
		c0-1.4,1.2-2.8,3.5-4c3.1-1.7,7.6-2.5,13.5-2.6c5.4-0.1,10.2,0.5,14.4,1.8l0.7,0.2c2.9-1.4,6-2,9.4-1.9c3.2,0.1,5.8,0.4,7.9,1
		c0.9,0.3,1.7,0.6,2.4,1c0.1,0,0.4,0.1,0.7,0.1v-3.3h-54.2l-11.1-3.2h79.8l11.2,3.2H409.3z"/>
	<path fill="#ED1C24" d="M451.1,121.3c-3.1,0-5.6,0.3-7.6,0.8c-2,0.5-3.2,1.1-3.6,1.7c-0.1,0.3-0.2,0.7-0.2,1.3
		c0,1.5,0.6,3.2,1.8,5.2c2.1,3.6,3.1,5.7,3.1,6.3c0,2.6-4.3,4.8-13,6.4c-4,0.8-7.3,1.1-9.9,1.1c-2.4,0-4-0.4-5.1-1.1
		c-0.1-0.1-0.2-0.3-0.2-0.4c0-0.4,1.1-0.8,3.3-1c1.8-0.2,3.2-0.3,4.4-0.4c3.1-0.8,4.9-1.2,5.3-1.4c1.2-0.5,1.9-1.4,2.2-2.7
		c0.4-1-0.3-2.4-2.2-4.4c-2.1-2.1-3.1-3.6-3.1-4.5c0-1.7,1.4-3.3,4.2-4.8c1.6-0.7,3.2-1.3,4.8-2h-17.4l-11-3.2h40.6l11.4,3.2
		C454.5,121.4,451.8,121.3,451.1,121.3z"/>
	<path fill="#ED1C24" d="M463.2,120.3v-0.7c-0.5-1.5-0.7-3.4-0.7-5.8l6.1,1.5c0.3,1,0.9,1.8,1.7,2.4c0.4,0.2,0.9,0.4,1.5,0.6h4.8
		l10.7,3.2H473v23.6l-10.4-3.4v-16.4c-0.1-0.6-0.3-1-0.4-1.2c-0.6-0.6-1.8-1.2-3.5-1.7c-2.2-0.6-4.8-0.9-7.7-0.9c-0.4,0-1.3,0-2.4,0
		l-10.6-2.9c4.7-0.2,8.1-0.2,10.3-0.2C455.1,118.3,460.1,119,463.2,120.3z"/>
	<path fill="#ED1C24" d="M536.5,121.5v23.6l-7-3.1c-7.2-5.3-19.2-8.1-36.2-8.4l-10.5-4.6c14.4-3.1,28.8-5.4,43.3-6.9v-0.6h-45
		l-10.5-3.2h71.4l10.5,3.2H536.5z M526,126.7c-6.9,0.8-14.3,1.9-22.2,3.5c8.8,1.3,16.2,3.1,22.2,5.4V126.7z"/>
</g>
<path fill="#00A651" d="M6.4,156.3h8.2c1.8,0,3.3,0.1,4.2,0.4c1.3,0.4,2.4,1,3.3,1.9c0.9,0.9,1.6,2.1,2.1,3.4c0.5,1.4,0.7,3,0.7,5
	c0,1.7-0.2,3.2-0.7,4.5c-0.6,1.5-1.3,2.8-2.4,3.7c-0.8,0.7-1.8,1.3-3.1,1.7c-1,0.3-2.3,0.4-4,0.4H6.4V156.3z M10.9,159.9v14h3.4
	c1.3,0,2.2-0.1,2.7-0.2c0.7-0.2,1.3-0.5,1.8-0.9c0.5-0.4,0.9-1.1,1.2-2c0.3-0.9,0.5-2.2,0.5-3.9c0-1.6-0.1-2.9-0.5-3.8
	c-0.3-0.9-0.7-1.6-1.3-2c-0.5-0.5-1.2-0.8-2.1-1c-0.6-0.1-1.9-0.2-3.7-0.2H10.9z"/>
<path fill="#00A651" d="M28.8,160v-3.7H33v3.7H28.8z M28.8,177.5v-15.3H33v15.3H28.8z"/>
<path fill="#00A651" d="M40.6,166.8l-3.9-0.7c0.4-1.5,1.2-2.6,2.2-3.3c1.1-0.7,2.6-1.1,4.7-1.1c1.9,0,3.3,0.2,4.2,0.6
	c0.9,0.4,1.6,1,2,1.6c0.4,0.7,0.6,1.9,0.6,3.6l-0.1,4.7c0,1.4,0.1,2.3,0.2,3c0.1,0.6,0.4,1.3,0.8,2.1h-4.3c-0.1-0.3-0.2-0.7-0.4-1.2
	c-0.1-0.2-0.1-0.4-0.1-0.5c-0.7,0.7-1.5,1.2-2.3,1.5c-0.8,0.3-1.7,0.5-2.6,0.5c-1.6,0-2.9-0.4-3.9-1.3c-1-0.9-1.4-1.9-1.4-3.3
	c0-0.9,0.2-1.6,0.6-2.3c0.4-0.7,1-1.2,1.8-1.6c0.8-0.4,1.9-0.7,3.4-1c2-0.4,3.4-0.7,4.1-1v-0.4c0-0.8-0.2-1.4-0.6-1.7
	c-0.4-0.3-1.2-0.5-2.3-0.5c-0.8,0-1.3,0.1-1.8,0.4C41.2,165.6,40.9,166.1,40.6,166.8z M46.3,170.1c-0.5,0.2-1.4,0.4-2.6,0.6
	c-1.2,0.2-1.9,0.5-2.3,0.7c-0.6,0.4-0.8,0.9-0.8,1.4c0,0.6,0.2,1.1,0.7,1.5c0.4,0.4,1,0.6,1.7,0.6c0.8,0,1.5-0.2,2.2-0.7
	c0.5-0.4,0.9-0.8,1-1.4c0.1-0.3,0.2-1,0.2-2V170.1z"/>
<path fill="#00A651" d="M54.2,178.5l4.9,0.5c0.1,0.6,0.3,0.9,0.6,1.1c0.4,0.3,1,0.4,1.9,0.4c1.1,0,1.9-0.2,2.5-0.5
	c0.4-0.2,0.7-0.6,0.8-1c0.1-0.3,0.2-1,0.2-1.9l0-2.2c-1.3,1.7-2.9,2.5-4.8,2.5c-2.2,0-3.9-0.9-5.1-2.6c-1-1.4-1.5-3.1-1.5-5.2
	c0-2.6,0.7-4.5,1.9-5.9c1.3-1.4,2.9-2,4.9-2c2,0,3.6,0.8,4.9,2.5v-2.1h4v13.8c0,1.8-0.2,3.2-0.5,4.1c-0.3,0.9-0.8,1.6-1.3,2.1
	c-0.6,0.5-1.3,0.9-2.3,1.2c-0.9,0.3-2.1,0.4-3.6,0.4c-2.7,0-4.7-0.4-5.8-1.3c-1.1-0.9-1.7-2-1.7-3.4
	C54.2,178.8,54.2,178.7,54.2,178.5z M58,169.5c0,1.6,0.3,2.8,1,3.6c0.7,0.8,1.5,1.1,2.4,1.1c1,0,1.9-0.4,2.6-1.2
	c0.7-0.8,1.1-1.9,1.1-3.4c0-1.6-0.3-2.8-1-3.5c-0.7-0.8-1.6-1.2-2.6-1.2c-1,0-1.9,0.4-2.5,1.1C58.3,166.8,58,167.9,58,169.5z"/>
<path fill="#00A651" d="M88.1,177.5h-4.3v-7.8c0-1.7-0.1-2.7-0.3-3.2c-0.2-0.5-0.5-0.9-0.9-1.1c-0.4-0.3-0.9-0.4-1.5-0.4
	c-0.7,0-1.4,0.2-2,0.6c-0.6,0.4-1,0.9-1.2,1.5c-0.2,0.6-0.3,1.8-0.3,3.5v7h-4.3v-15.3h4v2.3c1.4-1.8,3.1-2.6,5.3-2.6
	c0.9,0,1.8,0.2,2.6,0.5c0.8,0.3,1.4,0.7,1.7,1.2c0.4,0.5,0.7,1.1,0.8,1.7c0.2,0.6,0.2,1.5,0.2,2.7V177.5z"/>
<path fill="#00A651" d="M91.5,169.6c0-1.4,0.3-2.7,1-3.9c0.7-1.3,1.7-2.2,3-2.9c1.3-0.7,2.7-1,4.3-1c2.4,0,4.4,0.8,6,2.3
	c1.6,1.5,2.3,3.4,2.3,5.7c0,2.3-0.8,4.3-2.4,5.8c-1.6,1.5-3.5,2.3-5.9,2.3c-1.5,0-2.9-0.3-4.2-1c-1.3-0.6-2.4-1.6-3.1-2.8
	C91.8,172.9,91.5,171.3,91.5,169.6z M95.8,169.8c0,1.5,0.4,2.7,1.1,3.5c0.8,0.8,1.7,1.2,2.8,1.2c1.1,0,2-0.4,2.8-1.2
	c0.8-0.8,1.1-2,1.1-3.6c0-1.5-0.4-2.7-1.1-3.5c-0.8-0.8-1.7-1.2-2.8-1.2c-1.1,0-2,0.4-2.8,1.2C96.2,167.1,95.8,168.3,95.8,169.8z"/>
<path fill="#00A651" d="M110,173.3l4.3-0.6c0.2,0.8,0.5,1.4,1.1,1.8s1.3,0.6,2.3,0.6c1.1,0,1.9-0.2,2.5-0.6c0.4-0.3,0.6-0.6,0.6-1.1
	c0-0.3-0.1-0.6-0.3-0.8c-0.2-0.2-0.7-0.4-1.4-0.5c-3.4-0.7-5.6-1.4-6.5-2c-1.3-0.8-1.9-2-1.9-3.5c0-1.3,0.5-2.5,1.6-3.4
	c1.1-0.9,2.8-1.4,5.1-1.4c2.2,0,3.8,0.3,4.9,1c1.1,0.7,1.8,1.7,2.2,3l-4,0.7c-0.2-0.6-0.5-1.1-1-1.4c-0.5-0.3-1.1-0.5-2-0.5
	c-1.1,0-1.9,0.2-2.4,0.5c-0.3,0.2-0.5,0.5-0.5,0.8c0,0.3,0.1,0.5,0.4,0.8c0.4,0.3,1.7,0.7,4,1.2c2.3,0.5,3.8,1.1,4.7,1.8
	c0.9,0.7,1.3,1.7,1.3,3c0,1.4-0.6,2.6-1.8,3.6c-1.2,1-3,1.5-5.5,1.5c-2.2,0-3.9-0.4-5.2-1.2C111.2,175.8,110.4,174.7,110,173.3z"/>
<path fill="#00A651" d="M136.1,162.1v3.2h-2.9v6.2c0,1.3,0,2,0.1,2.2c0.1,0.2,0.2,0.4,0.4,0.5c0.2,0.1,0.4,0.2,0.7,0.2
	c0.4,0,1-0.1,1.7-0.4l0.3,3.1c-1,0.4-2.1,0.6-3.3,0.6c-0.8,0-1.4-0.1-2-0.4c-0.6-0.2-1.1-0.6-1.3-1c-0.3-0.4-0.5-0.9-0.6-1.6
	c-0.1-0.5-0.1-1.4-0.1-2.9v-6.7H127v-3.2h1.9v-3.1l4.3-2.4v5.4H136.1z"/>
<path fill="#00A651" d="M139,160v-3.7h4.3v3.7H139z M139,177.5v-15.3h4.3v15.3H139z"/>
<path fill="#00A651" d="M161.6,166.6l-4.2,0.7c-0.1-0.8-0.5-1.4-1-1.8c-0.5-0.4-1.1-0.6-1.9-0.6c-1.1,0-1.9,0.4-2.5,1.1
	c-0.6,0.7-0.9,1.9-0.9,3.5c0,1.8,0.3,3.1,1,3.9c0.6,0.8,1.5,1.1,2.6,1.1c0.8,0,1.5-0.2,2-0.7c0.5-0.4,0.9-1.2,1.1-2.3l4.2,0.7
	c-0.4,1.8-1.3,3.2-2.5,4.2c-1.2,0.9-2.9,1.4-4.9,1.4c-2.4,0-4.2-0.7-5.6-2.1c-1.4-1.4-2.1-3.4-2.1-5.9c0-2.5,0.7-4.5,2.1-5.9
	c1.4-1.4,3.3-2.1,5.7-2.1c2,0,3.5,0.4,4.7,1.2C160.3,163.7,161.1,164.9,161.6,166.6z"/>
<path fill="#00A651" d="M193.2,174.9l-2.6,3.1c-1.3-0.6-2.5-1.4-3.6-2.4c-0.9,0.8-1.9,1.3-2.9,1.7c-1,0.4-2.2,0.5-3.6,0.5
	c-2.8,0-4.9-0.7-6.3-2.2c-1.1-1.1-1.6-2.5-1.6-4c0-1.4,0.4-2.6,1.3-3.7c0.9-1.1,2.1-2,3.8-2.8c-0.8-0.9-1.3-1.7-1.7-2.4
	c-0.4-0.8-0.6-1.5-0.6-2.2c0-1.3,0.5-2.4,1.6-3.3c1.1-0.9,2.6-1.3,4.6-1.3c1.9,0,3.4,0.5,4.5,1.4c1.1,0.9,1.6,2.1,1.6,3.4
	c0,0.9-0.3,1.7-0.8,2.4c-0.5,0.8-1.6,1.6-3.2,2.6l3.1,3.9c0.4-0.6,0.7-1.4,0.9-2.4l3.9,0.8c-0.4,1.3-0.7,2.3-1,2.9
	c-0.3,0.6-0.6,1.1-0.9,1.5c0.5,0.4,1.1,0.9,1.9,1.4C192.3,174.4,192.8,174.7,193.2,174.9z M179.9,167.8c-1,0.5-1.7,1-2.2,1.7
	c-0.5,0.7-0.7,1.4-0.7,2c0,0.9,0.3,1.6,0.9,2.2c0.6,0.6,1.4,0.8,2.4,0.8c0.7,0,1.3-0.1,1.9-0.4c0.6-0.3,1.3-0.7,2-1.2L179.9,167.8z
	 M181.5,163.3l1.2-0.8c0.9-0.6,1.3-1.3,1.3-1.9c0-0.5-0.2-1-0.6-1.3c-0.4-0.4-1-0.6-1.7-0.6c-0.7,0-1.2,0.2-1.6,0.5
	c-0.4,0.3-0.6,0.7-0.6,1.1c0,0.5,0.3,1.1,1,1.8L181.5,163.3z"/>
<path fill="#00A651" d="M204.5,177.5v-21.2h6.7l3.9,14.4l3.9-14.4h6.7v21.2h-4.1l0-16.7l-4.4,16.7H213l-4.3-16.7l0,16.7H204.5z"/>
<path fill="#00A651" d="M239.6,172.6l4.3,0.7c-0.5,1.5-1.4,2.6-2.6,3.4c-1.2,0.8-2.7,1.2-4.4,1.2c-2.8,0-4.9-0.9-6.2-2.6
	c-1.1-1.4-1.6-3.2-1.6-5.3c0-2.6,0.7-4.6,2.1-6c1.4-1.4,3.2-2.2,5.3-2.2c2.4,0,4.3,0.8,5.7,2.3c1.4,1.5,2,3.8,2,6.9h-10.7
	c0,1.2,0.4,2.1,1,2.8c0.7,0.7,1.5,1,2.5,1c0.7,0,1.2-0.2,1.7-0.5C239.1,173.9,239.4,173.4,239.6,172.6z M239.9,168.4
	c0-1.2-0.3-2.1-1-2.7c-0.6-0.6-1.3-0.9-2.2-0.9c-0.9,0-1.7,0.3-2.3,1c-0.6,0.6-0.9,1.5-0.9,2.6H239.9z"/>
<path fill="#00A651" d="M262.3,177.5h-4v-2.3c-0.7,0.9-1.4,1.5-2.3,2c-0.9,0.4-1.8,0.7-2.7,0.7c-1.8,0-3.4-0.7-4.7-2.1
	c-1.3-1.4-2-3.4-2-6c0-2.6,0.6-4.6,1.9-6c1.3-1.4,2.9-2,4.9-2c1.8,0,3.4,0.7,4.7,2.1v-7.6h4.3V177.5z M251,169.5
	c0,1.7,0.2,2.9,0.7,3.6c0.7,1.1,1.7,1.6,2.9,1.6c1,0,1.8-0.4,2.5-1.2c0.7-0.8,1-2,1-3.6c0-1.8-0.3-3.1-1-3.8
	c-0.7-0.8-1.5-1.2-2.6-1.2c-1,0-1.9,0.4-2.5,1.2C251.3,166.8,251,167.9,251,169.5z"/>
<path fill="#00A651" d="M266.5,160v-3.7h4.3v3.7H266.5z M266.5,177.5v-15.3h4.3v15.3H266.5z"/>
<path fill="#00A651" d="M289.1,166.6l-4.2,0.7c-0.1-0.8-0.5-1.4-1-1.8c-0.5-0.4-1.1-0.6-1.9-0.6c-1.1,0-1.9,0.4-2.5,1.1
	c-0.6,0.7-0.9,1.9-0.9,3.5c0,1.8,0.3,3.1,1,3.9c0.6,0.8,1.5,1.1,2.6,1.1c0.8,0,1.5-0.2,2-0.7c0.5-0.4,0.9-1.2,1.1-2.3l4.2,0.7
	c-0.4,1.8-1.3,3.2-2.5,4.2c-1.2,0.9-2.9,1.4-4.9,1.4c-2.3,0-4.2-0.7-5.6-2.1c-1.4-1.4-2.1-3.4-2.1-5.9c0-2.5,0.7-4.5,2.1-5.9
	c1.4-1.4,3.3-2.1,5.7-2.1c1.9,0,3.5,0.4,4.7,1.2C287.8,163.7,288.6,164.9,289.1,166.6z"/>
<path fill="#00A651" d="M295.6,166.8l-3.9-0.7c0.4-1.5,1.2-2.6,2.2-3.3c1.1-0.7,2.6-1.1,4.7-1.1c1.9,0,3.3,0.2,4.2,0.6
	c0.9,0.4,1.6,1,2,1.6c0.4,0.7,0.6,1.9,0.6,3.6l-0.1,4.7c0,1.4,0.1,2.3,0.2,3c0.1,0.6,0.4,1.3,0.8,2.1h-4.3c-0.1-0.3-0.2-0.7-0.4-1.2
	c-0.1-0.2-0.1-0.4-0.1-0.5c-0.7,0.7-1.5,1.2-2.3,1.5c-0.8,0.3-1.7,0.5-2.6,0.5c-1.7,0-2.9-0.4-3.9-1.3c-0.9-0.9-1.4-1.9-1.4-3.3
	c0-0.9,0.2-1.6,0.6-2.3c0.4-0.7,1-1.2,1.8-1.6c0.8-0.4,1.9-0.7,3.4-1c2-0.4,3.4-0.7,4.1-1v-0.4c0-0.8-0.2-1.4-0.6-1.7
	c-0.4-0.3-1.2-0.5-2.3-0.5c-0.8,0-1.3,0.1-1.8,0.4C296.2,165.6,295.9,166.1,295.6,166.8z M301.3,170.1c-0.5,0.2-1.4,0.4-2.6,0.6
	c-1.2,0.2-1.9,0.5-2.3,0.7c-0.6,0.4-0.8,0.9-0.8,1.4c0,0.6,0.2,1.1,0.7,1.5c0.4,0.4,1,0.6,1.7,0.6c0.8,0,1.5-0.2,2.2-0.7
	c0.5-0.4,0.9-0.8,1-1.4c0.1-0.3,0.2-1,0.2-2V170.1z"/>
<path fill="#00A651" d="M309.6,177.5v-21.2h4.3v21.2H309.6z"/>
<path fill="#00A651" d="M341.2,169.7l4.4,1.3c-0.7,2.3-1.8,4-3.3,5.1c-1.6,1.1-3.5,1.7-5.9,1.7c-3,0-5.4-1-7.3-2.9
	c-1.9-1.9-2.9-4.5-2.9-7.9c0-3.5,1-6.3,2.9-8.2c1.9-1.9,4.4-2.9,7.6-2.9c2.7,0,4.9,0.8,6.6,2.3c1,0.9,1.8,2.2,2.3,3.9l-4.4,1
	c-0.3-1.1-0.8-2-1.7-2.6c-0.8-0.6-1.9-1-3.1-1c-1.7,0-3,0.6-4,1.7c-1,1.1-1.6,3-1.6,5.5c0,2.7,0.5,4.6,1.5,5.7c1,1.1,2.3,1.7,4,1.7
	c1.2,0,2.2-0.4,3.1-1.1C340.2,172.4,340.8,171.2,341.2,169.7z"/>
<path fill="#00A651" d="M353.5,156.3v7.8c1.4-1.5,3-2.3,4.9-2.3c1,0,1.9,0.2,2.6,0.5c0.8,0.3,1.4,0.8,1.8,1.3
	c0.4,0.5,0.7,1.1,0.8,1.8c0.1,0.7,0.2,1.7,0.2,3.1v9h-4.3v-8.1c0-1.6-0.1-2.6-0.2-3.1c-0.2-0.4-0.4-0.8-0.8-1
	c-0.4-0.3-0.9-0.4-1.5-0.4c-0.7,0-1.3,0.2-1.9,0.5c-0.5,0.3-1,0.8-1.2,1.5c-0.3,0.7-0.4,1.6-0.4,2.9v7.7h-4.3v-21.2H353.5z"/>
<path fill="#00A651" d="M377.5,172.6l4.3,0.7c-0.5,1.5-1.4,2.6-2.6,3.4c-1.2,0.8-2.6,1.2-4.4,1.2c-2.8,0-4.9-0.9-6.2-2.6
	c-1.1-1.4-1.6-3.2-1.6-5.3c0-2.6,0.7-4.6,2.1-6c1.4-1.4,3.2-2.2,5.3-2.2c2.4,0,4.3,0.8,5.7,2.3c1.4,1.5,2,3.8,2,6.9h-10.7
	c0,1.2,0.4,2.1,1,2.8c0.7,0.7,1.5,1,2.4,1c0.7,0,1.2-0.2,1.7-0.5C376.9,173.9,377.3,173.4,377.5,172.6z M377.7,168.4
	c0-1.2-0.3-2.1-1-2.7c-0.6-0.6-1.3-0.9-2.2-0.9c-0.9,0-1.7,0.3-2.3,1c-0.6,0.6-0.9,1.5-0.9,2.6H377.7z"/>
<path fill="#00A651" d="M402.6,177.5v-21.2h4.3v11.2l5-5.4h5.2l-5.5,5.6l5.9,9.7h-4.6l-4-6.9l-1.9,2v4.9H402.6z"/>
<path fill="#00A651" d="M430.5,177.5v-2.3c-0.6,0.8-1.4,1.5-2.3,2c-1,0.5-2,0.7-3,0.7c-1.1,0-2-0.2-2.9-0.7
	c-0.9-0.5-1.5-1.1-1.9-1.9c-0.4-0.8-0.6-2-0.6-3.4v-9.7h4.3v7c0,2.2,0.1,3.5,0.2,4c0.2,0.5,0.4,0.9,0.9,1.2c0.4,0.3,0.9,0.4,1.6,0.4
	c0.7,0,1.4-0.2,2-0.6c0.6-0.4,1-0.9,1.2-1.4c0.2-0.6,0.3-1.9,0.3-4.1v-6.5h4.3v15.3H430.5z"/>
<path fill="#00A651" d="M438.8,162.1h4v2.3c0.5-0.8,1.2-1.4,2.1-1.9c0.9-0.5,1.9-0.7,2.9-0.7c1.9,0,3.5,0.7,4.8,2.1
	c1.3,1.4,2,3.4,2,5.9c0,2.6-0.7,4.6-2,6c-1.3,1.4-2.9,2.1-4.8,2.1c-0.9,0-1.7-0.2-2.4-0.5c-0.7-0.3-1.5-0.9-2.3-1.7v7.7h-4.3V162.1z
	 M443,169.5c0,1.7,0.4,3,1.1,3.9c0.7,0.8,1.6,1.2,2.6,1.2c1,0,1.8-0.4,2.5-1.1c0.7-0.8,1-2,1-3.8c0-1.6-0.3-2.8-1-3.6
	c-0.7-0.8-1.5-1.2-2.5-1.2c-1,0-1.9,0.4-2.6,1.2C443.3,166.9,443,168,443,169.5z"/>
<path fill="#00A651" d="M480.7,169.7l4.4,1.3c-0.7,2.3-1.8,4-3.3,5.1c-1.6,1.1-3.5,1.7-5.9,1.7c-3,0-5.4-1-7.3-2.9
	c-1.9-1.9-2.9-4.5-2.9-7.9c0-3.5,1-6.3,2.9-8.2c1.9-1.9,4.4-2.9,7.6-2.9c2.7,0,4.9,0.8,6.6,2.3c1,0.9,1.8,2.2,2.3,3.9l-4.4,1
	c-0.3-1.1-0.8-2-1.7-2.6c-0.8-0.6-1.9-1-3.1-1c-1.7,0-3,0.6-4,1.7c-1,1.1-1.5,3-1.5,5.5c0,2.7,0.5,4.6,1.5,5.7c1,1.1,2.3,1.7,4,1.7
	c1.2,0,2.2-0.4,3.1-1.1C479.7,172.4,480.3,171.2,480.7,169.7z"/>
<path fill="#00A651" d="M498.1,172.6l4.3,0.7c-0.5,1.5-1.4,2.6-2.6,3.4c-1.2,0.8-2.7,1.2-4.4,1.2c-2.8,0-4.9-0.9-6.2-2.6
	c-1.1-1.4-1.6-3.2-1.6-5.3c0-2.6,0.7-4.6,2.1-6c1.4-1.4,3.2-2.2,5.3-2.2c2.4,0,4.3,0.8,5.7,2.3c1.4,1.5,2,3.8,2,6.9h-10.7
	c0,1.2,0.4,2.1,1,2.8c0.7,0.7,1.5,1,2.4,1c0.7,0,1.2-0.2,1.7-0.5C497.6,173.9,497.9,173.4,498.1,172.6z M498.4,168.4
	c0-1.2-0.3-2.1-1-2.7c-0.6-0.6-1.3-0.9-2.2-0.9c-0.9,0-1.7,0.3-2.3,1c-0.6,0.6-0.9,1.5-0.9,2.6H498.4z"/>
<path fill="#00A651" d="M520.6,177.5h-4.3v-7.8c0-1.7-0.1-2.7-0.3-3.2c-0.2-0.5-0.5-0.9-0.9-1.1c-0.4-0.3-0.9-0.4-1.5-0.4
	c-0.7,0-1.4,0.2-2,0.6c-0.6,0.4-1,0.9-1.2,1.5c-0.2,0.6-0.3,1.8-0.3,3.5v7h-4.3v-15.3h4v2.3c1.4-1.8,3.1-2.6,5.3-2.6
	c0.9,0,1.8,0.2,2.6,0.5c0.8,0.3,1.4,0.7,1.7,1.2c0.4,0.5,0.7,1.1,0.8,1.7c0.2,0.6,0.2,1.5,0.2,2.7V177.5z"/>
<path fill="#00A651" d="M532.4,162.1v3.2h-2.9v6.2c0,1.3,0,2,0.1,2.2c0.1,0.2,0.2,0.4,0.4,0.5c0.2,0.1,0.4,0.2,0.7,0.2
	c0.4,0,1-0.1,1.7-0.4l0.3,3.1c-1,0.4-2.1,0.6-3.3,0.6c-0.8,0-1.4-0.1-2-0.4c-0.6-0.2-1.1-0.6-1.3-1c-0.3-0.4-0.5-0.9-0.6-1.6
	c-0.1-0.5-0.1-1.4-0.1-2.9v-6.7h-1.9v-3.2h1.9v-3.1l4.3-2.4v5.4H532.4z"/>
<path fill="#00A651" d="M539.4,177.5h-4.3v-15.3h4v2.2c0.7-1,1.3-1.7,1.8-2.1c0.5-0.3,1.2-0.5,1.8-0.5c1,0,1.9,0.3,2.8,0.8l-1.3,3.5
	c-0.7-0.4-1.4-0.7-2-0.7c-0.6,0-1.1,0.2-1.5,0.5c-0.4,0.3-0.7,0.9-1,1.7c-0.2,0.8-0.4,2.5-0.4,5.2V177.5z"/>
<path fill="#00A651" d="M556.7,172.6l4.3,0.7c-0.5,1.5-1.4,2.6-2.6,3.4c-1.2,0.8-2.6,1.2-4.4,1.2c-2.8,0-4.9-0.9-6.2-2.6
	c-1.1-1.4-1.6-3.2-1.6-5.3c0-2.6,0.7-4.6,2.1-6c1.4-1.4,3.2-2.2,5.3-2.2c2.4,0,4.3,0.8,5.7,2.3c1.4,1.5,2,3.8,2,6.9h-10.7
	c0,1.2,0.4,2.1,1,2.8c0.7,0.7,1.5,1,2.4,1c0.7,0,1.2-0.2,1.7-0.5C556.1,173.9,556.5,173.4,556.7,172.6z M556.9,168.4
	c0-1.2-0.3-2.1-1-2.7c-0.6-0.6-1.3-0.9-2.2-0.9c-0.9,0-1.7,0.3-2.3,1c-0.6,0.6-0.9,1.5-0.9,2.6H556.9z"/>
<path fill="#00A651" d="M398.6,165.5l-4.2,0.7c-0.1-0.8-0.5-1.4-1-1.8c-0.5-0.4-1.1-0.6-1.9-0.6c-1.1,0-1.9,0.4-2.5,1.1
	c-0.6,0.7-0.9,1.9-0.9,3.5c0,1.8,0.3,3.1,1,3.9c0.6,0.8,1.5,1.1,2.6,1.1c0.8,0,1.5-0.2,2-0.7c0.5-0.4,0.9-1.2,1.1-2.3l4.2,0.7
	c-0.4,1.8-1.3,3.2-2.5,4.2c-1.2,0.9-2.9,1.4-4.9,1.4c-2.3,0-4.2-0.7-5.6-2.1c-1.4-1.4-2.1-3.4-2.1-5.9c0-2.5,0.7-4.5,2.1-5.9
	c1.4-1.4,3.3-2.1,5.7-2.1c2,0,3.5,0.4,4.7,1.2C397.2,162.7,398.1,163.9,398.6,165.5z"/>
</svg>
